<svg width="25" height="20" viewBox="0 0 25 20" fill="none" xmlns="http://www.w3.org/2000/svg">
<g clip-path="url(#clip0_384_57)">
<path d="M25.0002 10.3419C24.6945 10.7121 24.3912 11.0847 24.0814 11.4507C23.7254 11.8705 23.4765 11.8917 23.0499 11.5362C20.8644 9.71065 18.6805 7.88271 16.4958 6.05558C15.2291 4.99558 13.96 3.93884 12.6973 2.87397C12.5538 2.75357 12.4589 2.76577 12.3218 2.88047C8.89799 5.7497 5.47091 8.61486 2.04465 11.48C1.95706 11.5532 1.87029 11.6281 1.77379 11.6883C1.52969 11.8404 1.26857 11.8136 1.06826 11.5874C0.749557 11.2287 0.439774 10.8609 0.143777 10.4827C-0.0865335 10.189 -0.0354436 9.90508 0.268663 9.64964C1.30992 8.77675 2.352 7.90468 3.39488 7.03341C5.99236 4.86298 8.58983 2.69255 11.1881 0.523753C12.0388 -0.186436 13.016 -0.17098 13.8667 0.547344C14.9728 1.48206 16.0846 2.41027 17.1956 3.3401C17.2557 3.39054 17.3084 3.45725 17.3992 3.47026C17.4616 3.39054 17.4316 3.2978 17.4324 3.2132C17.4349 2.4062 17.4324 1.5992 17.4349 0.792209C17.4365 0.221942 17.6092 0.0519202 18.1801 0.0519202C19.0495 0.0511067 19.9196 0.0511067 20.789 0.0519202C21.2893 0.0527337 21.4564 0.223569 21.4572 0.731196C21.458 2.68767 21.4604 4.64415 21.4539 6.60144C21.4531 6.80644 21.5067 6.94474 21.6705 7.07978C22.689 7.91606 23.6987 8.76373 24.7083 9.61059C24.8137 9.69845 24.9037 9.80421 25.001 9.90183C25.0002 10.0483 25.0002 10.1947 25.0002 10.3419Z" fill="#0E6EB8"/>
<path d="M21.4562 15.3264C21.4562 16.5085 21.457 17.6905 21.4554 18.8725C21.4545 19.577 21.0385 19.9935 20.3306 19.9935C18.4775 19.9951 16.6245 19.9903 14.7715 19.9992C14.5201 20.0008 14.4536 19.913 14.4544 19.673C14.4617 17.9036 14.4585 16.1351 14.4585 14.3657C14.4585 14.0265 14.4577 14.0257 14.1252 14.0257C13.0523 14.0257 11.9794 14.0257 10.9065 14.0257C10.5675 14.0257 10.5667 14.0265 10.5667 14.3592C10.5667 16.1204 10.5667 17.8808 10.5659 19.6421C10.5659 19.9927 10.5643 19.9943 10.2115 19.9943C8.38283 19.9943 6.55413 19.9951 4.72544 19.9943C3.97125 19.9935 3.56902 19.5884 3.56902 18.8302C3.56821 16.458 3.57145 14.085 3.56415 11.7129C3.56334 11.4924 3.63957 11.3525 3.80338 11.2174C6.64739 8.87292 9.48815 6.52433 12.3257 4.17167C12.4652 4.05616 12.5519 4.04721 12.6963 4.16679C15.5395 6.52514 18.3867 8.87861 21.2364 11.2288C21.3953 11.3598 21.4627 11.4981 21.461 11.7063C21.4513 12.9136 21.4562 14.12 21.4562 15.3264Z" fill="#0E6EB8"/>
</g>
<defs>
<clipPath id="clip0_384_57">
<rect width="25" height="20" fill="white"/>
</clipPath>
</defs>
</svg>
