<svg width="17" height="17" viewBox="0 0 17 17" fill="none" xmlns="http://www.w3.org/2000/svg">
<path d="M8.90848 0C9.05068 0.0336876 9.19288 0.0735003 9.33661 0.0995316C9.95588 0.214376 10.5553 0.401189 11.1363 0.640065C11.7709 0.900378 12.3687 1.2296 12.9345 1.62007C13.4406 1.97073 13.9085 2.36426 14.3397 2.8022C15.014 3.48667 15.5813 4.25536 16.0262 5.10827C16.4436 5.90912 16.7525 6.75131 16.9314 7.63943C16.9467 7.71753 16.9773 7.79409 17.0002 7.87065C17.0002 7.90434 17.0002 7.9365 17.0002 7.97019C16.7021 8.02531 16.4054 8.07891 16.1073 8.1325C15.9727 8.157 15.8381 8.17691 15.6929 8.20141C15.3657 6.40218 14.5629 4.86633 13.2602 3.60304C11.9605 2.34282 10.4085 1.58944 8.59961 1.31688C8.65924 0.871285 8.71735 0.436408 8.77545 0C8.81979 0 8.86413 0 8.90848 0Z" fill="#0E6EB8"/>
<path d="M0 5.01333C0.0229358 4.5218 0.0963303 4.05017 0.38685 3.64133C0.472477 3.52036 0.570336 3.40551 0.675841 3.29986C1.08104 2.89101 1.4893 2.48676 1.89755 2.08098C2.04281 1.93551 2.20336 1.80841 2.3945 1.72726C2.81651 1.54963 3.20489 1.62619 3.56422 1.8911C3.64832 1.95388 3.7263 2.02432 3.80122 2.09782C4.43119 2.72717 5.05963 3.35804 5.68807 3.98892C5.84862 4.1497 5.99541 4.32427 6.0841 4.53711C6.26147 4.96739 6.16972 5.3594 5.8945 5.71618C5.81346 5.8203 5.72018 5.91677 5.62691 6.01018C5.27217 6.36696 4.91437 6.72068 4.5581 7.07593C4.38073 7.25356 4.37615 7.31481 4.47859 7.54603C4.83945 8.35913 5.3685 9.05738 5.94954 9.72194C6.61315 10.483 7.34251 11.172 8.16361 11.7646C8.58563 12.0694 9.0367 12.3251 9.50459 12.5517C9.6896 12.642 9.74924 12.6313 9.90061 12.4813C10.292 12.0908 10.6804 11.6973 11.0719 11.3068C11.2294 11.1491 11.3991 11.0097 11.607 10.9255C12.0245 10.7571 12.4067 10.8398 12.7584 11.1001C12.8379 11.1598 12.9128 11.2272 12.9832 11.2976C13.6223 11.9346 14.2584 12.5716 14.896 13.2086C15.0535 13.3663 15.1942 13.5348 15.2798 13.743C15.4587 14.1748 15.3624 14.5653 15.0933 14.9251C15.0413 14.9956 14.9801 15.0614 14.919 15.1242C14.5153 15.5331 14.1101 15.9419 13.7049 16.3507C13.2829 16.7764 12.7661 16.9832 12.1743 16.9954C11.3578 17.0123 10.5749 16.83 9.81651 16.5437C8.83792 16.1731 7.92049 15.6801 7.03976 15.1166C5.86544 14.3647 4.80275 13.4766 3.85168 12.4583C2.72477 11.2517 1.75688 9.93172 1.02752 8.44641C0.629969 7.6379 0.29052 6.80337 0.119266 5.91371C0.058104 5.61971 0.0366972 5.31499 0 5.01333Z" fill="#0E6EB8"/>
<path d="M8.60719 3.40092C11.2968 3.77455 13.1898 5.91983 13.5506 8.206C13.1271 8.2795 12.702 8.353 12.2708 8.42803C11.7907 6.36237 10.5154 5.12052 8.42676 4.69483C8.48639 4.27067 8.54602 3.84192 8.60719 3.40092Z" fill="#0E6EB8"/>
</svg>
