<svg width="252" height="42" viewBox="0 0 252 42" fill="none" xmlns="http://www.w3.org/2000/svg">
<g clip-path="url(#clip0_721_169)">
<path d="M21.3347 42C9.56997 42 0 32.734 0 21.3431C0 9.95211 9.56997 0.686157 21.3347 0.686157C31.9347 0.686157 41.0102 8.35371 42.4496 18.5239L42.521 19.0372H34.8848L34.8079 18.6755C33.5114 12.5053 27.8447 8.02924 21.3347 8.02924C13.7534 8.02924 7.58401 14.0026 7.58401 21.3431C7.58401 28.6835 13.7534 34.6569 21.3347 34.6569C27.8941 34.6569 33.5663 30.1383 34.8244 23.9096L34.8985 23.5452H42.5347L42.466 24.0558C41.0761 34.2872 31.9924 42 21.3347 42ZM21.3347 1.58775C10.0836 1.58775 0.931177 10.4495 0.931177 21.3431C0.931177 32.2367 10.0836 41.0984 21.3347 41.0984C31.3469 41.0984 39.9087 33.976 41.4662 24.4495H35.6594C34.1734 30.9096 28.21 35.5612 21.3347 35.5612C13.2397 35.5612 6.65283 29.1835 6.65283 21.3457C6.65283 13.508 13.2397 7.12765 21.3347 7.12765C28.1605 7.12765 34.1157 11.734 35.6402 18.1356H41.447C39.8456 8.66488 31.2919 1.58775 21.3347 1.58775Z" fill="#0068B6"/>
<path d="M23.9798 9.98938V15.5878C25.5455 16.2899 26.7678 17.5745 27.3749 19.149H15.0938C15.7009 17.5745 16.9232 16.2899 18.4889 15.5878V9.98938C13.1573 11.1942 9.18262 15.8138 9.18262 21.3431C9.18262 26.8724 13.1573 31.492 18.4889 32.6968V27.0984C16.9204 26.3963 15.7009 25.1117 15.0938 23.5373H27.3749C26.7678 25.1144 25.5455 26.3963 23.9798 27.0984V32.6968C29.3114 31.492 33.2861 26.8724 33.2861 21.3431C33.2861 15.8138 29.3114 11.1942 23.9798 9.98938Z" fill="#036EB7"/>
<path d="M38.2662 6.0984C36.5302 6.0984 35.1183 4.73138 35.1183 3.05053C35.1183 1.36968 36.5302 0 38.2662 0C40.0022 0 41.414 1.36702 41.414 3.04787C41.414 4.72872 40.0022 6.0984 38.2662 6.0984ZM38.2662 0.452128C36.7856 0.452128 35.5825 1.61702 35.5825 3.05053C35.5825 4.48404 36.7856 5.64894 38.2662 5.64894C39.7467 5.64894 40.9498 4.48404 40.9498 3.05053C40.9498 1.61702 39.7467 0.452128 38.2662 0.452128Z" fill="black"/>
<path d="M36.879 4.9016V1.19415H38.1316C39.0545 1.19415 39.516 1.55054 39.516 2.26596C39.516 2.54522 39.4418 2.77394 39.2962 2.95479C39.1616 3.125 38.9666 3.25 38.7139 3.32713L39.6506 4.89894H38.9694L38.1014 3.4016H37.4833V4.89894H36.879V4.9016ZM37.4833 2.93883H38.0602C38.6315 2.93883 38.9199 2.71543 38.9199 2.26862C38.9199 2.05054 38.8458 1.89362 38.7002 1.80054C38.5601 1.71011 38.3486 1.6649 38.0602 1.6649H37.4833V2.93883Z" fill="#231815"/>
<path d="M68.0363 6.63827L69.374 8.992C69.374 8.992 62.0235 7.81646 58.6806 11.4042C55.3377 14.992 55.703 19.1702 56.0684 21.8165C56.4337 24.4627 58.9855 30.1702 71.2584 28.8165L67.248 34.1117H59.7134C59.7134 34.1117 46.8335 31.758 48.4734 19.2872C50.1132 6.81646 61.4137 4.87232 68.0363 6.63827Z" fill="#036EB7"/>
<path d="M97.6225 6.32715H91.5767V18.2181H80.8531V6.32715H74.8073C74.3211 6.32715 73.9255 6.71013 73.9255 7.18087V33.0053C73.9255 33.4761 74.3211 33.8591 74.8073 33.8591H80.8531V21.9681H91.5767V33.8591H97.6225C98.1087 33.8591 98.5042 33.4761 98.5042 33.0053V7.18087C98.5042 6.71013 98.1087 6.32715 97.6225 6.32715Z" fill="#006934"/>
<path d="M123.069 30.7101H113.845V19.2128L119.16 24.359L124.767 18.9308L119.16 13.5026L113.845 18.6489V8.44679H122.234L124.421 6.32977H113.843H108.519H107.797C107.311 6.32977 106.915 6.71275 106.915 7.1835V33.008C106.915 33.4787 107.311 33.8617 107.797 33.8617H108.519H113.843H126.313V33.8564L123.069 30.7101Z" fill="#036EB7"/>
<path d="M216.574 33.4282L221.793 29.4388L209.682 14.5851L218.67 7.7154L216.626 5.21008L202.911 15.6915V7.44678H196.866C196.379 7.44678 195.984 7.82976 195.984 8.30051V34.125C195.984 34.5957 196.379 34.9787 196.866 34.9787H202.911V19.7606L204.463 18.5744L216.574 33.4282Z" fill="#006934"/>
<path d="M155.663 29.1011L154.611 27.984V5.81116L149.812 8.49467V22.8856L134.367 6.48137L129.282 10.9707L130.491 12.2553V34.375L135.29 31.6915V17.3537L150.576 33.5878L155.663 29.1011Z" fill="#006934"/>
<path d="M182.868 6.21808V8.36701L175.83 17.7899L164.972 6.25797L159.888 10.7473L161.415 12.367V33.9681L166.214 31.2846V17.4654L174.751 26.5319L182.868 16.0665V33.8644H189.792V6.21808H182.868Z" fill="#036EB7"/>
<path d="M236.813 5.38562C228.424 5.38562 221.623 11.9707 221.623 20.0931C221.623 28.2154 228.424 34.8005 236.813 34.8005C245.202 34.8005 252.003 28.2154 252.003 20.0931C252.003 11.9707 245.199 5.38562 236.813 5.38562ZM239.804 31.8271C236.428 32.5372 232.514 27.8697 231.066 21.4042C229.619 14.9388 231.182 9.12232 234.558 8.41222C237.933 7.70211 241.848 12.3697 243.295 18.8351C244.743 25.3005 243.18 31.117 239.804 31.8271Z" fill="#036EB7"/>
</g>
<defs>
<clipPath id="clip0_721_169">
<rect width="252" height="42" fill="white"/>
</clipPath>
</defs>
</svg>
