<svg width="14" height="14" viewBox="0 0 14 14" fill="none" xmlns="http://www.w3.org/2000/svg">
<g clip-path="url(#clip0_713_592)">
<g clip-path="url(#clip1_713_592)">
<path d="M10.6948 0H3.36407C2.88724 0 2.5 0.378296 2.5 0.844126V13.1569C2.5 13.6217 2.88724 14.001 3.36407 14.001H10.6958C11.1716 14.001 11.5599 13.6227 11.5599 13.1569V0.844126C11.5588 0.378296 11.1716 0 10.6948 0ZM6.04485 12.5623C6.04485 12.3379 6.23126 12.1558 6.46092 12.1558H7.67309C7.90275 12.1558 8.08916 12.3379 8.08916 12.5623C8.08916 12.7866 7.90275 12.9688 7.67309 12.9688H6.46092C6.23126 12.9677 6.04485 12.7866 6.04485 12.5623ZM10.1881 11.2936H3.86356V1.7295H10.1881V11.2936Z" fill="white"/>
</g>
</g>
<defs>
<clipPath id="clip0_713_592">
<rect width="14" height="14" fill="white"/>
</clipPath>
<clipPath id="clip1_713_592">
<rect width="9.05882" height="14" fill="white" transform="translate(2.5)"/>
</clipPath>
</defs>
</svg>
