<svg width="16" height="15" viewBox="0 0 16 15" fill="none" xmlns="http://www.w3.org/2000/svg">
<path d="M0.356934 10.186C0.356934 8.27826 0.356934 6.37048 0.356934 4.46271C0.372447 4.42597 0.390176 4.38922 0.403473 4.35173C0.589632 3.82454 1.00258 3.51933 1.55589 3.51183C2.02276 3.50583 2.49037 3.51033 2.95725 3.50958C3.14267 3.50958 3.15006 3.50133 3.15006 3.31235C3.1508 2.41396 3.15006 1.51632 3.1508 0.617926C3.1508 0.203226 3.34804 0 3.75064 0C6.57775 0 9.40633 0 12.2342 0C12.6383 0 12.8362 0.202476 12.8362 0.614926C12.837 1.49757 12.8362 2.38096 12.8362 3.26361C12.8362 3.50883 12.8362 3.50883 13.0711 3.50883C13.4989 3.50883 13.9259 3.50808 14.3536 3.50958C14.4725 3.51033 14.5914 3.50658 14.7089 3.53658C15.2785 3.68431 15.639 4.14775 15.6397 4.74918C15.6419 6.12151 15.6404 7.49385 15.6404 8.86619C15.6404 9.23964 15.6456 9.6131 15.6375 9.98655C15.6249 10.573 15.1403 11.0859 14.5671 11.1347C14.061 11.1774 13.5535 11.1452 13.0475 11.1549C12.8429 11.1587 12.8362 11.1632 12.8362 11.3671C12.8362 12.1793 12.8362 12.9922 12.8362 13.8043C12.8362 14.2378 12.6434 14.435 12.2194 14.435C9.40116 14.435 6.58292 14.435 3.76468 14.435C3.34139 14.435 3.15006 14.2378 3.14932 13.8028C3.14858 12.9952 3.14932 12.1883 3.14932 11.3806C3.14932 11.1587 3.14636 11.1557 2.92179 11.1549C2.50958 11.1542 2.09663 11.1579 1.68442 11.1534C1.45025 11.1504 1.21977 11.1257 1.0048 11.0139C0.662766 10.8384 0.471436 10.5445 0.356934 10.186ZM8.00053 13.3656C9.1788 13.3656 10.3563 13.3656 11.5346 13.3656C11.7754 13.3656 11.7799 13.3611 11.7799 13.1234C11.7799 11.8921 11.7799 10.6615 11.7799 9.43012C11.7799 9.19165 11.7754 9.18715 11.5353 9.18715C9.17437 9.18715 6.8134 9.18715 4.45317 9.18715C4.21235 9.18715 4.20791 9.19165 4.20791 9.42937C4.20791 10.6607 4.20791 11.8913 4.20791 13.1227C4.20791 13.3611 4.21235 13.3656 4.45243 13.3656C5.63439 13.3656 6.81783 13.3656 8.00053 13.3656ZM7.98502 3.50958C9.1825 3.50958 10.38 3.50958 11.5774 3.50958C11.7703 3.50958 11.7799 3.49983 11.7799 3.30335C11.7806 2.63218 11.7806 1.96176 11.7799 1.29059C11.7799 1.08587 11.7666 1.07087 11.5715 1.07087C9.18693 1.07012 6.80158 1.07012 4.41697 1.07087C4.22047 1.07087 4.20717 1.08512 4.20717 1.28835C4.20644 1.95427 4.20644 2.62019 4.20717 3.28536C4.20717 3.50358 4.21235 3.50883 4.42288 3.50883C5.61002 3.51033 6.79715 3.50958 7.98502 3.50958ZM11.6654 6.54071C11.8685 6.54071 12.0724 6.54371 12.2755 6.53996C12.5725 6.53397 12.7742 6.35324 12.7919 6.08402C12.8119 5.7863 12.6434 5.56208 12.3339 5.54633C11.8884 5.52384 11.4408 5.52384 10.9961 5.54633C10.6873 5.56208 10.5196 5.78706 10.5373 6.08477C10.5536 6.34874 10.7612 6.53397 11.0559 6.53921C11.2583 6.54371 11.4622 6.54071 11.6654 6.54071Z" fill="#0E6EB8"/>
<path d="M7.99444 12.6195C7.25941 12.6195 6.52437 12.6232 5.79008 12.618C5.38747 12.615 5.14222 12.2048 5.32321 11.8478C5.40299 11.6896 5.53226 11.5921 5.7066 11.5689C5.80485 11.5561 5.90458 11.5501 6.00357 11.5501C7.32959 11.5486 8.65486 11.5494 9.98087 11.5501C10.0703 11.5501 10.1596 11.5546 10.2483 11.5651C10.5453 11.6011 10.7307 11.8223 10.7189 12.1223C10.7078 12.4028 10.4906 12.6157 10.2003 12.6172C9.4645 12.6217 8.72947 12.6195 7.99444 12.6195Z" fill="#0E6EB8"/>
<path d="M8.00299 9.93255C8.73285 9.93255 9.46271 9.92955 10.1926 9.93405C10.5774 9.9363 10.8242 10.3038 10.6838 10.6585C10.6092 10.8459 10.4703 10.9599 10.2701 10.9832C10.1623 10.9959 10.0522 11.0004 9.94288 11.0004C8.64199 11.0012 7.34109 11.0012 6.04019 11.0004C5.93603 11.0004 5.83187 10.9952 5.72845 10.9847C5.44626 10.9547 5.25862 10.7267 5.26896 10.4327C5.27857 10.1568 5.48984 9.93855 5.76908 9.9348C6.20123 9.9288 6.63339 9.93255 7.06481 9.93255C7.37729 9.9318 7.69051 9.9318 8.00299 9.93255Z" fill="#0E6EB8"/>
</svg>
